<svg xmlns="http://www.w3.org/2000/svg" width="18" height="18"><path fill="#6F6EFF" fill-rule="evenodd" d="M3.966 2.893A2.662 2.662 0 012.864 3.98c-.28.148-.059.465-.059.465.287.435.548.873.764 1.254l-1.45 1.448H.713a.49.49 0 000 .98h1.609a.49.49 0 00.347-.143l5.295-5.29a.49.49 0 00.144-.347V.73a.49.49 0 10-.98 0v1.414l-1.444 1.44c-.39-.23-.842-.511-1.29-.821 0 0-.258-.183-.428.13zm-2.316.402c.44 0 .854-.172 1.166-.483.311-.311.483-.725.483-1.165 0-.44-.172-.853-.483-1.164A1.64 1.64 0 001.65 0C1.209 0 .795.172.483.483A1.635 1.635 0 000 1.647c0 .44.171.854.483 1.165a1.64 1.64 0 001.167.483zm4.613 3.397a.56.56 0 00-.79 0l-.546.546a.56.56 0 000 .79l9.328 9.317c.217.217.645.417.95.445l2.287.208a.45.45 0 00.506-.506l-.208-2.281a1.795 1.795 0 00-.445-.95l-9.33-9.32a.56.56 0 00-.79 0l-.546.547a.56.56 0 000 .79l7.81 7.801a.294.294 0 11-.416.416l-7.81-7.803z"/></svg>