<svg xmlns="http://www.w3.org/2000/svg" width="12" height="17" viewBox="0 0 12 17">
    <path fill="#FFF" fill-rule="nonzero" d="M2.224 5.98h7.563v-.946H2.224v.947zm-1.067 7.986h9.721v-.958H1.157v.958zM.062 17H11.96v-1.989H.062V17zm2.235-5.023h7.428l-.902-4.963H3.198l-.9 4.963zM.041 1.223C.038.826.041.43.041.01h3.238v.954h1.09V.005h3.266v.962h1.088V0h3.258c0 .651-.041 1.294.013 1.93.048.568-.175.949-.594 1.362-.553.546-1.124.755-1.942.738-2.554-.052-5.11-.022-7.665-.014-.248 0-.43-.058-.6-.228C.827 3.422.297 3.127.104 2.7c-.192-.427-.058-.98-.063-1.477z" opacity=".5"/>
</svg>
